<?xml version="1.0" encoding="UTF-8" standalone="no"?>
<svg width="312px" height="371px" viewBox="0 0 312 371" version="1.1" xmlns="http://www.w3.org/2000/svg" xmlns:xlink="http://www.w3.org/1999/xlink" xmlns:sketch="http://www.bohemiancoding.com/sketch/ns">
    <!-- Generator: Sketch 3.4.4 (17249) - http://www.bohemiancoding.com/sketch -->
    <title>c3p0</title>
    <desc>Created with Sketch.</desc>
    <defs></defs>
    <g id="Page-1" stroke="none" stroke-width="1" fill="none" fill-rule="evenodd" sketch:type="MSPage">
        <g id="Minions" sketch:type="MSArtboardGroup" transform="translate(-2002.000000, -1201.000000)">
            <g id="c3p0" sketch:type="MSLayerGroup" transform="translate(2001.000000, 1201.000000)">
                <path d="M291.644,336.696 L22.328,336.696 L22.328,291.804 L291.644,291.804 L291.644,336.696 Z" id="Fill-209" fill="#D7AA11" sketch:type="MSShapeGroup"></path>
                <path d="M33.5468,336.6924 L280.4228,336.6924 L302.5628,178.9284 C304.8068,146.4564 298.0268,115.6764 282.9548,89.9364 C265.0628,59.3724 190.6508,0.0444 157.0988,0.0444 L156.9788,0.0444 L156.8588,0.0444 C123.3188,0.7524 48.8948,59.3724 31.0148,89.9364 C15.9308,115.6764 9.1628,146.4564 11.3948,178.9284 L33.5468,336.6924 Z" id="Fill-211" fill="#D7AA11" sketch:type="MSShapeGroup"></path>
                <path d="M280.1816,177.3804 C282.0056,150.9444 276.9776,124.1364 263.5856,101.2764 C247.2056,73.2924 216.0656,45.2484 156.9896,44.9364 C97.9016,45.2484 66.7616,73.2924 50.3816,101.2764 C36.9896,124.1364 31.9616,150.9444 33.7856,177.3804 L55.9856,336.6924 L123.3176,370.3524 L190.6496,370.3524 L257.9816,336.6924 L280.1816,177.3804 Z" id="Fill-212" fill="#ECBF1A" sketch:type="MSShapeGroup"></path>
                <path d="M162.5948,224.4768 C162.5948,258.5688 134.9588,286.1928 100.8788,286.1928 C66.7868,286.1928 39.1628,258.5688 39.1628,224.4768 C39.1628,190.3848 66.7868,162.7608 100.8788,162.7608 C134.9588,162.7608 162.5948,190.3848 162.5948,224.4768" id="Fill-213" fill="#D7AA11" sketch:type="MSShapeGroup"></path>
                <path d="M274.8104,224.4768 C274.8104,258.5688 247.1744,286.1928 213.0944,286.1928 C179.0024,286.1928 151.3784,258.5688 151.3784,224.4768 C151.3784,190.3848 179.0024,162.7608 213.0944,162.7608 C247.1744,162.7608 274.8104,190.3848 274.8104,224.4768" id="Fill-214" fill="#D7AA11" sketch:type="MSShapeGroup"></path>
                <path d="M156.9836,280.5852 L134.5436,291.8052 L156.9836,269.3652 L179.4236,291.8052 L156.9836,280.5852 Z" id="Fill-215" fill="#323232" sketch:type="MSShapeGroup"></path>
                <path d="M179.432,325.476 L134.552,325.476 L134.552,336.696 L179.432,336.696 L179.432,325.476 Z" id="Fill-216" fill="#323232" sketch:type="MSShapeGroup"></path>
                <path d="M78.4328,347.9136 L235.5368,347.9136 L257.9768,336.6936 L55.9928,336.6936 L78.4328,347.9136 Z" id="Fill-217" fill="#D7AA11" sketch:type="MSShapeGroup"></path>
                <path id="Fill-218" fill="#7BA78E" sketch:type="MSShapeGroup"></path>
                <path d="M134.5412,224.4768 C134.5412,243.0648 119.4692,258.1368 100.8812,258.1368 C82.2812,258.1368 67.2092,243.0648 67.2092,224.4768 C67.2092,205.8888 82.2812,190.8168 100.8812,190.8168 C119.4692,190.8168 134.5412,205.8888 134.5412,224.4768" id="Fill-219" fill="#FFFFFF" sketch:type="MSShapeGroup"></path>
                <path d="M100.8764,216.0612 C96.2204,216.0612 92.4644,219.8292 92.4644,224.4732 C92.4644,229.1292 96.2204,232.8972 100.8764,232.8972 C105.5324,232.8972 109.2884,229.1292 109.2884,224.4732 C109.2884,219.8292 105.5324,216.0612 100.8764,216.0612" id="Fill-220" fill="#323232" sketch:type="MSShapeGroup"></path>
                <path d="M89.66,269.364 L78.44,269.364 L78.44,179.592 L89.66,179.592 L89.66,269.364 Z" id="Fill-221" fill="#D7AA11" sketch:type="MSShapeGroup"></path>
                <path d="M123.32,269.364 L112.1,269.364 L112.1,179.592 L123.32,179.592 L123.32,269.364 Z" id="Fill-222" fill="#D7AA11" sketch:type="MSShapeGroup"></path>
                <path d="M246.7556,224.4768 C246.7556,243.0648 231.6836,258.1368 213.0956,258.1368 C194.4956,258.1368 179.4236,243.0648 179.4236,224.4768 C179.4236,205.8888 194.4956,190.8168 213.0956,190.8168 C231.6836,190.8168 246.7556,205.8888 246.7556,224.4768" id="Fill-223" fill="#FFFFFF" sketch:type="MSShapeGroup"></path>
                <path d="M213.092,216.0612 C208.436,216.0612 204.68,219.8292 204.68,224.4732 C204.68,229.1292 208.436,232.8972 213.092,232.8972 C217.748,232.8972 221.504,229.1292 221.504,224.4732 C221.504,219.8292 217.748,216.0612 213.092,216.0612" id="Fill-224" fill="#323232" sketch:type="MSShapeGroup"></path>
                <path d="M201.872,269.364 L190.652,269.364 L190.652,179.592 L201.872,179.592 L201.872,269.364 Z" id="Fill-225" fill="#D7AA11" sketch:type="MSShapeGroup"></path>
                <path d="M235.532,269.364 L224.312,269.364 L224.312,179.592 L235.532,179.592 L235.532,269.364 Z" id="Fill-226" fill="#D7AA11" sketch:type="MSShapeGroup"></path>
                <path d="M168.2048,22.4892 C168.2048,28.6812 163.1768,33.7092 156.9848,33.7092 C150.7808,33.7092 145.7648,28.6812 145.7648,22.4892 C145.7648,16.2972 150.7808,11.2692 156.9848,11.2692 C163.1768,11.2692 168.2048,16.2972 168.2048,22.4892" id="Fill-227" fill="#ECBF1A" sketch:type="MSShapeGroup"></path>
                <path d="M301.8332,264.8868 L279.6092,261.7668 L284.3852,227.7468 L306.6092,230.8668 L301.8332,264.8868 Z" id="Fill-228" fill="#D7AA11" sketch:type="MSShapeGroup"></path>
                <path d="M12.1232,264.7608 L7.3472,230.7408 L29.5712,227.6208 L34.3472,261.6408 L12.1232,264.7608 Z" id="Fill-229" fill="#D7AA11" sketch:type="MSShapeGroup"></path>
                <path d="M308.2004,219.5292 L285.9764,216.4092 L290.7524,182.3892 L312.9764,185.5092 L308.2004,219.5292 Z" id="Fill-230" fill="#D7AA11" sketch:type="MSShapeGroup"></path>
                <path d="M5.756,219.4032 L0.98,185.3832 L23.204,182.2632 L27.98,216.2832 L5.756,219.4032 Z" id="Fill-231" fill="#D7AA11" sketch:type="MSShapeGroup"></path>
                <path d="M61.6004,157.1484 C58.5044,157.1484 55.9844,154.6404 55.9844,151.5324 C55.9844,105.1284 93.7364,67.3764 140.1524,67.3764 C143.2484,67.3764 145.7564,69.8844 145.7564,72.9924 C145.7564,76.0884 143.2484,78.5964 140.1524,78.5964 C99.9284,78.5964 67.2164,111.3204 67.2164,151.5324 C67.2164,154.6404 64.6964,157.1484 61.6004,157.1484" id="Fill-232" opacity="0.25" fill="#FFFFFF" sketch:type="MSShapeGroup"></path>
            </g>
        </g>
    </g>
</svg>