<?xml version="1.0" encoding="UTF-8" standalone="no"?>
<svg width="361px" height="457px" viewBox="0 0 361 457" version="1.1" xmlns="http://www.w3.org/2000/svg" xmlns:xlink="http://www.w3.org/1999/xlink" xmlns:sketch="http://www.bohemiancoding.com/sketch/ns">
    <!-- Generator: Sketch 3.4.4 (17249) - http://www.bohemiancoding.com/sketch -->
    <title>chewbacca</title>
    <desc>Created with Sketch.</desc>
    <defs></defs>
    <g id="Page-1" stroke="none" stroke-width="1" fill="none" fill-rule="evenodd" sketch:type="MSPage">
        <g id="Minions" sketch:type="MSArtboardGroup" transform="translate(-2766.000000, -1172.000000)">
            <g id="chewbacca" sketch:type="MSLayerGroup" transform="translate(2766.000000, 1172.000000)">
                <path d="M259.6412,331.5776 C258.8732,334.5896 256.1732,336.5816 253.2212,336.5696 L125.6132,336.5696 L119.6732,336.5696 C106.7972,336.5216 96.4172,325.3496 96.4652,312.3536 C96.5252,299.3576 107.0012,288.8696 119.8772,288.9176 C121.8212,288.9296 123.8132,289.2176 125.6132,289.6736 L253.2212,323.0096 L254.9012,323.4536 C258.4292,324.3776 260.5532,328.0136 259.6412,331.5776" id="Fill-161" fill="#323232" sketch:type="MSShapeGroup"></path>
                <path d="M180.4676,0.9212 C100.9436,0.9212 32.2556,88.7612 26.6996,171.8252 L0.4676,384.9212 L360.4676,384.9212 L334.2356,171.8252 C328.6796,88.7612 259.9916,0.9212 180.4676,0.9212" id="Fill-162" fill="#503C1D" sketch:type="MSShapeGroup"></path>
                <path d="M252.4676,152.9216 L252.4676,152.9216 L288.4676,101.3696 L216.4676,127.1456 L252.4676,75.5936 L204.4676,88.4816 L216.4676,36.9176 L180.4676,88.4816 L144.4676,36.9176 L156.4676,88.4816 L108.4676,75.5936 L144.4676,127.1456 L72.4676,101.3696 L108.4676,152.9216 C76.2716,146.0096 45.5036,170.3216 42.0596,205.3976 L24.4676,384.9176 L180.4676,384.9176 L336.4676,384.9176 L318.8756,205.3976 C315.4316,170.3216 284.6636,146.0096 252.4676,152.9216" id="Fill-163" fill="#A57D52" sketch:type="MSShapeGroup"></path>
                <path d="M168.4676,264.9212 C123.0956,264.9212 102.4676,312.9212 102.4676,312.9212 L258.4676,312.9212 C258.4676,312.9212 241.2116,264.9212 192.4676,264.9212 L180.4676,276.9212 L168.4676,264.9212 Z" id="Fill-164" fill="#8C6239" sketch:type="MSShapeGroup"></path>
                <path d="M180.4676,252.9212 L180.4676,312.9212" id="Stroke-165" stroke="#A57D52" stroke-width="13.416" stroke-linecap="round" sketch:type="MSShapeGroup"></path>
                <path d="M180.4676,238.1528 C198.8156,238.1528 213.6956,246.8288 213.6956,257.5328 C213.6956,258.7688 213.4556,259.9688 213.0716,261.1328 C211.5116,260.6408 209.8796,260.3048 208.1636,260.3048 C199.3916,260.3048 192.2996,267.1088 191.6636,275.7128 C188.1476,276.4568 184.4156,276.9248 180.4676,276.9248 C176.5196,276.9248 172.7876,276.4568 169.2716,275.7128 C168.6356,267.1088 161.5436,260.3048 152.7716,260.3048 C151.0556,260.3048 149.4236,260.6408 147.8516,261.1328 C147.4796,259.9688 147.2396,258.7688 147.2396,257.5328 C147.2396,246.8288 162.1196,238.1528 180.4676,238.1528" id="Fill-166" fill="#323232" sketch:type="MSShapeGroup"></path>
                <path d="M84.4676,372.9212 L108.4676,432.9212 L132.4676,396.9212 L156.4676,456.9212 L180.4676,396.9212 L204.4676,456.9212 L228.4676,396.9212 L252.4676,432.9212 L276.4676,372.9212 L84.4676,372.9212 Z" id="Fill-167" fill="#A57D52" sketch:type="MSShapeGroup"></path>
                <path d="M204.4676,205.1852 C204.4676,218.2892 215.0996,228.9212 228.2036,228.9212 L276.4676,228.9212 C276.4676,228.9212 253.2596,181.4492 228.2036,181.4492 C215.5076,181.4492 204.4676,192.0812 204.4676,205.1852" id="Fill-168" fill="#503C1D" sketch:type="MSShapeGroup"></path>
                <path d="M156.4676,205.1852 C156.4676,218.2892 145.8356,228.9212 132.7316,228.9212 L84.4676,228.9212 C84.4676,228.9212 107.6756,181.4492 132.7316,181.4492 C145.4276,181.4492 156.4676,192.0812 156.4676,205.1852" id="Fill-169" fill="#503C1D" sketch:type="MSShapeGroup"></path>
                <path d="M228.4676,195.9224 C223.4876,195.9224 219.4676,199.9424 219.4676,204.9224 C219.4676,209.9024 223.4876,213.9224 228.4676,213.9224 C233.4476,213.9224 237.4676,209.9024 237.4676,204.9224 C237.4676,199.9424 233.4476,195.9224 228.4676,195.9224" id="Fill-170" fill="#FFFFFF" sketch:type="MSShapeGroup"></path>
                <path d="M132.4676,195.9224 C127.4876,195.9224 123.4676,199.9424 123.4676,204.9224 C123.4676,209.9024 127.4876,213.9224 132.4676,213.9224 C137.4476,213.9224 141.4676,209.9024 141.4676,204.9224 C141.4676,199.9424 137.4476,195.9224 132.4676,195.9224" id="Fill-171" fill="#FFFFFF" sketch:type="MSShapeGroup"></path>
                <path d="M246.4676,336.9224 L114.4676,336.9224 C104.5676,336.9224 96.4676,328.8224 96.4676,318.9224 C96.4676,309.0224 104.5676,300.9224 114.4676,300.9224 L246.4676,300.9224 C256.3676,300.9224 264.4676,309.0224 264.4676,318.9224 L264.4676,318.9224 C264.4676,328.8224 256.3676,336.9224 246.4676,336.9224" id="Fill-172" fill="#323232" sketch:type="MSShapeGroup"></path>
                <path d="M132.4676,336.9212 L144.4676,312.9212 L156.4676,336.9212 L132.4676,336.9212 Z" id="Fill-173" fill="#FFFFFF" sketch:type="MSShapeGroup"></path>
                <path d="M204.4676,336.9212 L216.4676,312.9212 L228.4676,336.9212 L204.4676,336.9212 Z" id="Fill-174" fill="#FFFFFF" sketch:type="MSShapeGroup"></path>
                <path d="M252.4676,300.9212 L240.4676,324.9212 L228.4676,300.9212 L252.4676,300.9212 Z" id="Fill-175" fill="#FFFFFF" sketch:type="MSShapeGroup"></path>
                <path d="M132.4676,300.9212 L120.4676,324.9212 L108.4676,300.9212 L132.4676,300.9212 Z" id="Fill-176" fill="#FFFFFF" sketch:type="MSShapeGroup"></path>
            </g>
        </g>
    </g>
</svg>