<?xml version="1.0" encoding="UTF-8" standalone="no"?>
<svg width="80px" height="848px" viewBox="0 0 80 848" version="1.1" xmlns="http://www.w3.org/2000/svg" xmlns:xlink="http://www.w3.org/1999/xlink" xmlns:sketch="http://www.bohemiancoding.com/sketch/ns">
    <!-- Generator: Sketch 3.4.4 (17249) - http://www.bohemiancoding.com/sketch -->
    <title>lightsaber-skywalker</title>
    <desc>Created with Sketch.</desc>
    <defs>
        <path id="path-1" d="M0,0 L80,0 L80,848 L0,848 L0,0 Z"></path>
    </defs>
    <g id="Page-1" stroke="none" stroke-width="1" fill="none" fill-rule="evenodd" sketch:type="MSPage">
        <g id="Minions" sketch:type="MSArtboardGroup" transform="translate(-2246.000000, -2735.000000)">
            <g id="lightsaber-skywalker" sketch:type="MSLayerGroup" transform="translate(2246.000000, 2735.000000)">
                <path d="M57.1376,10.08 C56.9856,4.64 53.1296,0.176 48.2816,0.008 C43.2336,-0.168 39.0176,4.336 38.8656,10.08 L32.0016,576 L64.0016,576 L57.1376,10.08 Z" id="Fill-1" fill="#1EAAE1" sketch:type="MSShapeGroup"></path>
                <mask id="mask-2" sketch:name="Clip 4" fill="white">
                    <use xlink:href="#path-1"></use>
                </mask>
                <g id="Clip-4"></g>
                <path d="M72,848 L24,848 L24,704 L72,704 L72,848 Z" id="Fill-3" fill="#BEBEBE" sketch:type="MSShapeGroup" mask="url(#mask-2)"></path>
                <path d="M72,608 L32,608 L32,560 L72,560 L72,608 Z" id="Fill-5" fill="#8C8C8C" sketch:type="MSShapeGroup" mask="url(#mask-2)"></path>
                <path d="M80,704 L16,704 L16,608 L80,608 L80,704 Z" id="Fill-6" fill="#BEBEBE" sketch:type="MSShapeGroup" mask="url(#mask-2)"></path>
                <path d="M32,840 L16,840 L16,704 L32,704 L32,840 Z" id="Fill-7" fill="#8C8C8C" sketch:type="MSShapeGroup" mask="url(#mask-2)"></path>
                <path d="M80,840 L64,840 L64,704 L80,704 L80,840 Z" id="Fill-8" fill="#8C8C8C" sketch:type="MSShapeGroup" mask="url(#mask-2)"></path>
                <path d="M56,840 L40,840 L40,704 L56,704 L56,840 Z" id="Fill-9" fill="#8C8C8C" sketch:type="MSShapeGroup" mask="url(#mask-2)"></path>
                <path d="M8,696 L16,696 L16,664 L8,664 L8,696 Z" id="Fill-10" fill="#CBCBCB" sketch:type="MSShapeGroup" mask="url(#mask-2)"></path>
                <path d="M8,608 L16,608 L16,592 L8,592 L8,608 Z" id="Fill-11" fill="#BEBEBE" sketch:type="MSShapeGroup" mask="url(#mask-2)"></path>
                <path d="M24,584 L8,584 C3.6,584 0,580.4 0,576 C0,571.6 3.6,568 8,568 L24,568 C28.4,568 32,571.6 32,576 C32,580.4 28.4,584 24,584" id="Fill-12" fill="#BEBEBE" sketch:type="MSShapeGroup" mask="url(#mask-2)"></path>
                <path d="M16,616 L16,544 L16,544 C25.808,544 34.768,549.544 39.152,558.312 L48,576 L80,592 L80,616 L16,616 Z" id="Fill-13" fill="#BEBEBE" sketch:type="MSShapeGroup" mask="url(#mask-2)"></path>
                <path d="M64,600 C64,604.416 60.416,608 56,608 C51.584,608 48,604.416 48,600 C48,595.584 51.584,592 56,592 C60.416,592 64,595.584 64,600" id="Fill-14" fill="#8C8C8C" sketch:type="MSShapeGroup" mask="url(#mask-2)"></path>
            </g>
        </g>
    </g>
</svg>