<?xml version="1.0" encoding="UTF-8" standalone="no"?>
<svg width="336px" height="372px" viewBox="0 0 336 372" version="1.1" xmlns="http://www.w3.org/2000/svg" xmlns:xlink="http://www.w3.org/1999/xlink" xmlns:sketch="http://www.bohemiancoding.com/sketch/ns">
    <!-- Generator: Sketch 3.4.4 (17249) - http://www.bohemiancoding.com/sketch -->
    <title>stormtrooper</title>
    <desc>Created with Sketch.</desc>
    <defs></defs>
    <g id="Page-1" stroke="none" stroke-width="1" fill="none" fill-rule="evenodd" sketch:type="MSPage">
        <g id="Minions" sketch:type="MSArtboardGroup" transform="translate(-3567.000000, -1963.000000)">
            <g id="stormtrooper" sketch:type="MSLayerGroup" transform="translate(3566.000000, 1963.000000)">
                <path d="M313.0464,120 C313.0464,53.724 248.5704,0 169.0464,0 C89.5224,0 25.0464,53.724 25.0464,120 C25.0464,186.276 89.5224,240 169.0464,240 C248.5704,240 313.0464,186.276 313.0464,120" id="Fill-233" fill="#ECECEC" sketch:type="MSShapeGroup"></path>
                <path d="M61.0464,126 C57.7344,126 55.0464,123.312 55.0464,120 C55.0464,67.068 106.1904,24 169.0464,24 C172.3584,24 175.0464,26.688 175.0464,30 C175.0464,33.312 172.3584,36 169.0464,36 C112.8024,36 67.0464,73.68 67.0464,120 C67.0464,123.312 64.3584,126 61.0464,126" id="Fill-234" opacity="0.5" fill="#FFFFFF" sketch:type="MSShapeGroup"></path>
                <path d="M25.0464,192 L5.8224,238.98 C-1.6176,254.46 -0.4656,272.844 8.8704,287.22 L49.9224,350.46 C58.6464,363.924 73.3464,372 89.0904,372 L89.1264,372 C99.0264,372 108.6744,368.796 116.6904,362.844 L141.2904,344.592 C157.8384,332.316 180.2064,332.388 196.6704,344.784 L220.4424,362.664 C228.5184,368.724 238.2624,372 248.2584,372 L248.9904,372 C264.7344,372 279.4344,363.924 288.1704,350.46 L329.0544,287.484 C338.4624,272.976 339.5544,254.376 331.8864,238.812 L313.0464,192 L25.0464,192 Z" id="Fill-235" fill="#ECECEC" sketch:type="MSShapeGroup"></path>
                <path d="M72.5988,192 C48.5988,192 48.5988,144 48.5988,144 L144.5988,144 C144.5988,144 96.5988,192 72.5988,192" id="Fill-236" fill="#323232" sketch:type="MSShapeGroup"></path>
                <path d="M253.0464,360 C243.1104,360 235.0464,351.936 235.0464,342 C235.0464,332.064 243.1104,324 253.0464,324 C262.9824,324 271.0464,332.064 271.0464,342 C271.0464,351.936 262.9824,360 253.0464,360" id="Fill-237" fill="#8C8C8C" sketch:type="MSShapeGroup"></path>
                <path d="M264.5988,192 C240.5988,192 192.5988,144 192.5988,144 L288.5988,144 C288.5988,144 288.5988,192 264.5988,192" id="Fill-238" fill="#323232" sketch:type="MSShapeGroup"></path>
                <path d="M313.044,192 L25.044,192 L25.044,132 L313.044,132 L313.044,192 Z" id="Fill-239" fill="#ECECEC" sketch:type="MSShapeGroup"></path>
                <path d="M313.044,120 L25.044,120 L25.044,144 L313.044,144 L313.044,120 Z" id="Fill-240" fill="#323232" sketch:type="MSShapeGroup"></path>
                <path d="M288.6216,144 L252.6816,144 L168.8256,144 L84.9696,144 L49.0296,144 L37.0416,144 L37.0416,204 L66.1176,204 C78.4776,204 90.6216,200.808 101.3856,194.736 L150.3336,167.112 C161.7216,160.272 175.9296,160.272 187.3176,167.112 L236.9496,194.868 C247.6536,200.856 259.7136,204 271.9776,204 L301.0416,204 L301.0416,144 L288.6216,144 Z" id="Fill-241" fill="#323232" sketch:type="MSShapeGroup"></path>
                <path d="M37.0464,192 L19.0464,234 L37.0464,234 L55.0464,192 L37.0464,192 Z" id="Fill-242" fill="#323232" sketch:type="MSShapeGroup"></path>
                <path d="M301.0464,228 L267.6864,266.124 C263.1744,271.284 255.2304,271.572 250.3344,266.784 C210.8664,228.216 169.0464,228 169.0464,228 C169.0464,228 127.2264,228.216 87.7584,266.784 C82.8624,271.572 74.9184,271.284 70.4064,266.124 L37.0464,228 L19.0464,234 L65.1384,290.328 C69.3504,295.476 76.9344,296.268 82.0344,291.996 C98.3184,278.34 134.2344,252 169.0464,252 C203.8584,252 239.7744,278.34 256.0584,291.996 C261.1584,296.268 268.7424,295.476 272.9544,290.328 L319.0464,234 L301.0464,228 Z" id="Fill-243" fill="#323232" sketch:type="MSShapeGroup"></path>
                <path d="M301.0464,192 L319.0464,234 L301.0464,234 L283.0464,192 L301.0464,192 Z" id="Fill-244" fill="#323232" sketch:type="MSShapeGroup"></path>
                <path d="M17.616,278.52 L10.284,269.028 L23.7,258.636 L31.032,268.128 L17.616,278.52 Z" id="Fill-245" fill="#505050" sketch:type="MSShapeGroup"></path>
                <path d="M27.9996,291.9372 L20.6676,282.4452 L34.0956,272.0652 L41.4276,281.5572 L27.9996,291.9372 Z" id="Fill-246" fill="#505050" sketch:type="MSShapeGroup"></path>
                <path d="M38.394,305.3616 L31.062,295.8696 L44.478,285.4776 L51.81,294.9696 L38.394,305.3616 Z" id="Fill-247" fill="#505050" sketch:type="MSShapeGroup"></path>
                <path d="M320.4756,278.52 L307.0596,268.128 L314.3916,258.636 L327.8076,269.028 L320.4756,278.52 Z" id="Fill-248" fill="#505050" sketch:type="MSShapeGroup"></path>
                <path d="M310.0932,291.9372 L296.6652,281.5572 L303.9972,272.0652 L317.4252,282.4452 L310.0932,291.9372 Z" id="Fill-249" fill="#505050" sketch:type="MSShapeGroup"></path>
                <path d="M299.6988,305.3616 L286.2828,294.9696 L293.6148,285.4776 L307.0308,295.8696 L299.6988,305.3616 Z" id="Fill-250" fill="#505050" sketch:type="MSShapeGroup"></path>
            </g>
        </g>
    </g>
</svg>